<svg width="128" height="128" viewBox="0 0 128 128" fill="none" xmlns="http://www.w3.org/2000/svg">
<path d="M128 128H0V0H128L63.7 64L128 128Z" fill="#A366F2"/>
<path d="M72.3306 72.861C70.4019 72.861 68.8331 71.2685 68.8331 69.3124C68.8331 67.3563 70.4019 65.7651 72.3306 65.7651C74.2596 65.7651 75.8285 67.3559 75.8285 69.3124C75.8285 71.2688 74.2596 72.861 72.3306 72.861ZM33.6694 72.861C31.7407 72.861 30.1718 71.2685 30.1718 69.3124C30.1718 67.3563 31.7404 65.7651 33.6694 65.7651C35.5981 65.7651 37.1669 67.3559 37.1669 69.3124C37.1669 71.2688 35.5984 72.861 33.6694 72.861ZM73.5851 51.4914L80.5757 39.2118C80.7682 38.8729 80.8202 38.4704 80.7204 38.0927C80.6206 37.715 80.3771 37.3928 80.0434 37.1969C79.7092 37.0018 79.3125 36.9491 78.94 37.0503C78.5676 37.1515 78.25 37.3984 78.0568 37.7368L70.9788 50.1716C65.5657 47.6665 59.4868 46.2707 53 46.2707C46.5132 46.2707 40.4343 47.6665 35.0215 50.1716L27.9432 37.7368C27.75 37.3984 27.4324 37.1515 27.06 37.0503C26.6875 36.9491 26.2908 37.0018 25.9566 37.1969C25.6227 37.3926 25.3791 37.7148 25.2792 38.0926C25.1794 38.4704 25.2316 38.873 25.4243 39.2118L32.4149 51.4914C20.411 58.113 12.2011 70.4383 11 85H95C93.798 70.4387 85.5881 58.113 73.5851 51.4911" fill="#7F2D6F"/>
<path d="M105.4 65.3065V65.3C105.4 49.4524 92.557 36.5 76.7 36.5C60.8454 36.5 48 49.3501 48 65.3C48 81.1476 60.843 94.1 76.7 94.1C92.4605 94.1 105.296 81.1454 105.4 65.3065Z" fill="#3A2373" stroke="#A366F2" stroke-width="2"/>
<path d="M93.3 16C83.4 16 75.3 23.5 75.3 32.7C75.3 32.9 75.3 33.1 75.3 33.3C75.5 33.3 75.7 33.3 75.9 33.3C85.8 33.3 93.9 25.8 93.9 16.6C93.9 16.4 93.9 16.2 93.9 16C93.7 16 93.5 16 93.3 16Z" fill="#3A2373"/>
</svg>
